<svg xmlns="http://www.w3.org/2000/svg" width="24" height="24" viewBox="0 0 24 24">
    <defs>
        <filter id="3zi2pzr9ia">
            <feColorMatrix in="SourceGraphic" values="0 0 0 0 1.000000 0 0 0 0 1.000000 0 0 0 0 1.000000 0 0 0 1.000000 0"/>
        </filter>
    </defs>
    <g fill="none" fill-rule="evenodd">
        <g>
            <g>
                <g>
                    <g stroke="#000" stroke-width="1.5" filter="url(#3zi2pzr9ia)" transform="translate(-376 -1038) translate(300 676) translate(0 64) translate(76 298)">
                        <path d="M12 5.75c2.14 0 4.078.867 5.48 2.27 1.403 1.402 2.27 3.34 2.27 5.48 0 2.14-.867 4.078-2.27 5.48-1.402 1.403-3.34 2.27-5.48 2.27-2.14 0-4.078-.867-5.48-2.27-1.403-1.402-2.27-3.34-2.27-5.48 0-2.14.867-4.078 2.27-5.48C7.922 6.617 9.86 5.75 12 5.75z"/>
                        <path stroke-linecap="round" d="M12 0L12 6" transform="rotate(-90 12 3)"/>
                        <path stroke-linecap="round" d="M12 13.691L12 10.041"/>
                    </g>
                </g>
            </g>
        </g>
    </g>
</svg>
