<svg xmlns="http://www.w3.org/2000/svg" width="10" height="19" viewBox="0 0 10 19">
    <g fill="none" fill-rule="evenodd">
        <g fill="#FFF" fill-rule="nonzero">
            <g>
                <g>
                    <path d="M.32 10.12h2.17v8.574c0 .169.142.306.319.306h3.679c.176 0 .32-.137.32-.306V10.16h2.494c.162 0 .298-.117.317-.272l.379-3.156c.01-.087-.018-.174-.079-.24-.06-.064-.147-.102-.238-.102H6.807V4.412c0-.597.335-.9.995-.9h1.879c.176 0 .319-.137.319-.306V.31c0-.17-.143-.307-.32-.307H7.093L6.973 0c-.45 0-2.01.085-3.244 1.174C2.362 2.38 2.552 3.826 2.597 4.076V6.39H.32c-.176 0-.319.137-.319.307v3.116c0 .17.143.306.32.306z" transform="translate(-873 -706) translate(750 690) translate(123 16)"/>
                </g>
            </g>
        </g>
    </g>
</svg>
