<svg xmlns="http://www.w3.org/2000/svg" xmlns:xlink="http://www.w3.org/1999/xlink" width="39" height="32" viewBox="0 0 39 32">
    <defs>
        <path id="j6m1z0rkla" d="M0 0.155L38.808 0.155 38.808 32 0 32z"/>
    </defs>
    <g fill="none" fill-rule="evenodd" opacity=".75">
        <g>
            <g>
                <g>
                    <path fill="#6E6E6E" d="M8.488 12c-.41 0-.76.147-1.051.438C7.146 12.73 7 13.084 7 13.5c0 .416.146.77.437 1.061.291.292.641.439 1.051.439.416 0 .771-.147 1.068-.439.297-.292.444-.645.444-1.06 0-.417-.147-.77-.444-1.063-.297-.291-.652-.438-1.068-.438M21.488 12c-.41 0-.76.145-1.05.438-.292.292-.438.646-.438 1.062 0 .416.146.769.438 1.062.29.292.64.438 1.05.438.415 0 .771-.146 1.067-.438.297-.293.445-.646.445-1.062 0-.416-.148-.77-.445-1.062-.296-.293-.652-.438-1.067-.438M30.488 12c-.41 0-.76.147-1.052.438-.29.292-.436.646-.436 1.062 0 .416.146.77.436 1.061.292.292.643.439 1.052.439.415 0 .771-.147 1.067-.439.296-.292.445-.645.445-1.06 0-.417-.149-.77-.445-1.063-.296-.291-.652-.438-1.067-.438" transform="translate(-1581 -3169) translate(0 2800) translate(1581 369)"/>
                    <g transform="translate(-1581 -3169) translate(0 2800) translate(1581 369)">
                        <mask id="grubncvgib" fill="#fff">
                            <use xlink:href="#j6m1z0rkla"/>
                        </mask>
                        <path fill="#6E6E6E" d="M34.424 15.945c0 1.741-.331 2.803-1.11 3.541-.925.877-2.244.939-3.354.78v-1.8c.927.092 2.201-.516 2.2-1.715v-.462h-.029c-.52.716-1.278.977-2.287.977-.935 0-1.746-.345-2.295-.988-.55-.64-.824-1.502-.824-2.581 0-1.21.306-2.17.918-2.881.61-.712 1.482-1.043 2.48-1.043.894 0 1.456.216 2.008.716h.028v-.543h2.265v5.999zm-9.137-.986c-.197.445-.48.841-.854 1.19-.37.344-.793.608-1.273.792-.479.183-.985.276-1.518.276-.523 0-1.022-.093-1.495-.276-.476-.184-.9-.448-1.274-.792-.385-.363-.675-.763-.873-1.203-.197-.44-.295-.907-.295-1.399 0-.493.098-.96.295-1.399.198-.438.488-.84.873-1.203.375-.345.798-.608 1.274-.793.473-.183.972-.275 1.495-.275.533 0 1.04.092 1.518.275.48.185.903.448 1.273.793.375.349.657.745.854 1.19.194.444.291.914.291 1.412 0 .498-.097.969-.291 1.412zM16.17 16.84h-2.324v-6.137c0-1.417-1.121-1.603-1.121-1.603V6.644s3.256.199 3.445 4.137v6.06zm-4.89-.872c-.6.677-1.523.961-2.527.961-.908 0-1.571-.272-2.061-.644h-.03v.481H4.385V6.85h2.279v3.79h.029c.616-.525 1.434-.703 2.4-.734.825-.028 1.684.488 2.2 1.081.512.593.887 1.521.887 2.55 0 1.116-.298 1.757-.9 2.432zM4.23.155C1.905.155 0 2.057 0 4.378v17.13c0 2.321 1.904 4.222 4.23 4.222h11.917s2.3 4.27 3.14 4.27c.84 0 3.328-4.27 3.328-4.27h11.962c2.327 0 4.23-1.9 4.23-4.223V4.377c0-2.32-1.903-4.222-4.23-4.222H4.231z" mask="url(#grubncvgib)"/>
                    </g>
                </g>
            </g>
        </g>
    </g>
</svg>
