<svg xmlns="http://www.w3.org/2000/svg" width="16" height="30" viewBox="0 0 16 30">
    <g fill="none" fill-rule="evenodd" opacity=".75">
        <g fill="#6E6E6E" fill-rule="nonzero">
            <g>
                <path d="M1535.51 384.978h3.473v13.538c0 .267.229.484.51.484h5.888c.282 0 .51-.217.51-.484v-13.474h3.992c.26 0 .478-.185.507-.429l.607-4.984c.016-.137-.03-.274-.127-.377-.097-.103-.235-.162-.38-.162h-4.598v-3.124c0-.942.535-1.42 1.591-1.42h3.006c.282 0 .511-.216.511-.484v-4.575c0-.267-.229-.483-.51-.483h-4.144c-.029-.002-.094-.004-.19-.004-.718 0-3.217.134-5.19 1.853-2.187 1.906-1.883 4.188-1.81 4.583v3.654h-3.645c-.282 0-.511.216-.511.484v4.92c0 .267.229.484.51.484z" transform="translate(-1535 -3169) translate(0 2800)"/>
            </g>
        </g>
    </g>
</svg>
