<svg xmlns="http://www.w3.org/2000/svg" width="117" height="26" viewBox="0 0 117 26">
    <g fill="none" fill-rule="evenodd">
        <g fill="#A8A8A8" fill-rule="nonzero">
            <g>
                <path d="M307.728 80.37c4.195 0 7.176-2.209 7.176-5.935 0-4.085-3.284-5.106-6.21-5.99-3.008-.91-3.478-1.517-3.478-2.4 0-.773.69-1.463 2.07-1.463 1.767 0 2.678.855 3.34 2.235l3.726-2.18c-1.407-2.843-3.891-4.361-7.065-4.361-3.34 0-6.487 2.153-6.487 5.879 0 3.698 2.816 5.078 5.686 5.879 2.898.8 4.002 1.27 4.002 2.456 0 .745-.524 1.573-2.622 1.573-2.18 0-3.367-1.076-4.057-2.677L300 75.594c1.076 2.843 3.67 4.775 7.728 4.775zm16.21 0c2.622 0 4.664-.967 6.017-2.844l-3.312-1.904c-.552.607-1.518 1.049-2.65 1.049-1.518 0-2.788-.497-3.312-1.932h9.798c.11-.525.166-1.077.166-1.656 0-4.168-2.981-7.287-7.01-7.287-4.362 0-7.343 3.174-7.343 7.287 0 4.112 2.926 7.286 7.646 7.286zm2.594-8.723h-5.934c.386-1.407 1.435-2.18 3.009-2.18 1.242 0 2.484.58 2.925 2.18zm12.87 8.722c2.622 0 4.665-.966 6.017-2.843l-3.312-1.904c-.552.607-1.518 1.049-2.65 1.049-1.518 0-2.787-.497-3.312-1.932h9.798c.11-.525.166-1.077.166-1.656 0-4.168-2.98-7.287-7.01-7.287-4.361 0-7.342 3.174-7.342 7.287 0 4.112 2.925 7.286 7.645 7.286zm2.595-8.722h-5.935c.387-1.407 1.436-2.18 3.009-2.18 1.242 0 2.484.58 2.926 2.18zm11.82 8.722c1.85 0 3.202-.635 4.113-1.683v1.297h4.14v-19.32h-4.14v6.817c-.91-1.05-2.263-1.684-4.112-1.684-3.616 0-6.597 3.174-6.597 7.287 0 4.112 2.981 7.286 6.597 7.286zm.829-3.92c-1.905 0-3.285-1.296-3.285-3.366 0-2.07 1.38-3.368 3.285-3.368 1.904 0 3.284 1.298 3.284 3.368s-1.38 3.367-3.284 3.367zm14.194 3.534v-7.535c0-1.96 1.05-2.843 2.567-2.843 1.325 0 2.402.8 2.402 2.512v7.866h4.14v-8.474c0-3.726-2.374-5.713-5.162-5.713-1.821 0-3.201.663-3.947 1.684v-1.297h-4.14v13.8h4.14zm13.616-15.015c1.352 0 2.484-1.132 2.484-2.484S383.808 60 382.456 60c-1.353 0-2.484 1.132-2.484 2.484s1.131 2.484 2.484 2.484zm2.07 15.015v-13.8h-4.14v13.8h4.14zm6.77 0v-7.535c0-1.96 1.049-2.843 2.567-2.843 1.325 0 2.4.8 2.4 2.512v7.866h4.141v-8.474c0-3.726-2.374-5.713-5.161-5.713-1.822 0-3.202.663-3.947 1.684v-1.297h-4.14v13.8h4.14zm18.417 5.906c3.671 0 7.287-1.96 7.287-6.596v-13.11h-4.03v1.407c-.91-1.131-2.235-1.794-4.03-1.794-3.919 0-6.79 3.202-6.79 7.01 0 3.81 2.871 7.011 6.79 7.011 1.795 0 3.12-.662 4.03-1.794v1.27c0 1.96-1.186 2.953-3.119 2.953-1.821 0-2.622-.773-3.146-1.739l-3.533 2.043c1.27 2.263 3.671 3.34 6.541 3.34zm-.082-9.88c-1.96 0-3.34-1.298-3.34-3.202 0-1.905 1.38-3.202 3.34-3.202s3.34 1.297 3.34 3.202c0 1.904-1.38 3.201-3.34 3.201z" transform="translate(-300 -2860) translate(0 2800)"/>
            </g>
        </g>
    </g>
</svg>
