<svg xmlns="http://www.w3.org/2000/svg" width="144" height="32" viewBox="0 0 144 32">
    <g fill="none" fill-rule="evenodd">
        <g fill="#1CB97C" fill-rule="nonzero">
            <g>
                <path d="M9.512 25.07c5.163 0 8.832-2.718 8.832-7.304 0-5.027-4.043-6.284-7.644-7.371-3.702-1.121-4.28-1.869-4.28-2.956 0-.95.85-1.8 2.548-1.8 2.174 0 3.295 1.053 4.11 2.752l4.586-2.684C15.932 2.208 12.874.34 8.968.34 4.858.34.985 2.99.985 7.575c0 4.552 3.465 6.25 6.998 7.236 3.567.985 4.926 1.562 4.926 3.023 0 .917-.646 1.936-3.228 1.936-2.683 0-4.144-1.324-4.993-3.295L0 19.193c1.325 3.499 4.518 5.877 9.512 5.877zm19.95 0c3.227 0 5.74-1.19 7.405-3.5l-4.076-2.343c-.68.747-1.868 1.29-3.261 1.29-1.869 0-3.431-.61-4.077-2.377h12.06c.136-.646.203-1.325.203-2.038 0-5.13-3.668-8.968-8.628-8.968-5.367 0-9.036 3.906-9.036 8.968 0 5.061 3.601 8.968 9.41 8.968zm3.193-10.735h-7.304c.476-1.732 1.767-2.683 3.703-2.683 1.529 0 3.057.713 3.601 2.683zm15.84 10.735c3.227 0 5.74-1.19 7.405-3.5l-4.076-2.343c-.68.747-1.868 1.29-3.261 1.29-1.869 0-3.431-.61-4.077-2.377h12.06c.136-.646.204-1.325.204-2.038 0-5.13-3.67-8.968-8.629-8.968-5.367 0-9.036 3.906-9.036 8.968 0 5.061 3.601 8.968 9.41 8.968zm3.193-10.735h-7.303c.475-1.732 1.766-2.683 3.702-2.683 1.529 0 3.058.713 3.601 2.683zm14.55 10.735c2.275 0 3.94-.782 5.06-2.072v1.596h5.096V.815H71.3v8.39c-1.121-1.29-2.786-2.071-5.062-2.071-4.45 0-8.119 3.906-8.119 8.968 0 5.061 3.67 8.968 8.12 8.968zm1.018-4.824c-2.344 0-4.042-1.597-4.042-4.144 0-2.548 1.698-4.145 4.042-4.145s4.043 1.597 4.043 4.145c0 2.547-1.699 4.144-4.043 4.144zm17.47 4.348V15.32c0-2.411 1.292-3.499 3.16-3.499 1.63 0 2.955.986 2.955 3.092v9.681h5.096V14.165c0-4.586-2.922-7.031-6.353-7.031-2.242 0-3.94.815-4.857 2.072V7.609H79.63v16.985h5.096zm16.758-18.48c1.664 0 3.057-1.392 3.057-3.057 0-1.664-1.393-3.057-3.057-3.057-1.665 0-3.057 1.393-3.057 3.057 0 1.665 1.392 3.058 3.057 3.058zm2.548 18.48V7.61h-5.096v16.985h5.096zm8.332 0V15.32c0-2.411 1.291-3.499 3.16-3.499 1.63 0 2.955.986 2.955 3.092v9.681h5.095V14.165c0-4.586-2.921-7.031-6.352-7.031-2.242 0-3.94.815-4.858 2.072V7.609h-5.095v16.985h5.095zm22.668 7.27c4.518 0 8.968-2.412 8.968-8.12V7.61h-4.96v1.733c-1.12-1.393-2.751-2.208-4.96-2.208-4.823 0-8.356 3.94-8.356 8.628 0 4.688 3.533 8.628 8.357 8.628 2.208 0 3.838-.815 4.96-2.208v1.563c0 2.412-1.461 3.635-3.84 3.635-2.241 0-3.226-.951-3.872-2.14l-4.348 2.513c1.563 2.786 4.518 4.11 8.051 4.11zm-.102-12.162c-2.412 0-4.11-1.596-4.11-3.94s1.698-3.94 4.11-3.94c2.412 0 4.11 1.596 4.11 3.94s-1.698 3.94-4.11 3.94z" transform="translate(-289 -106) translate(0 60) translate(289 46)"/>
            </g>
        </g>
    </g>
</svg>
