<svg xmlns="http://www.w3.org/2000/svg" xmlns:xlink="http://www.w3.org/1999/xlink" width="196" height="200" viewBox="0 0 196 200">
    <defs>
        <filter id="hh3o8sxwra" width="128.4%" height="127.7%" x="-14.2%" y="-12.7%" filterUnits="objectBoundingBox">
            <feOffset dy="2" in="SourceAlpha" result="shadowOffsetOuter1"/>
            <feGaussianBlur in="shadowOffsetOuter1" result="shadowBlurOuter1" stdDeviation="7.5"/>
            <feColorMatrix in="shadowBlurOuter1" values="0 0 0 0 0.109803922 0 0 0 0 0.725490196 0 0 0 0 0.48627451 0 0 0 0.25 0"/>
        </filter>
        <path id="cjyj853zbb" d="M84.842.492c46.86 0 84.849 37.915 84.849 84.686 0 46.772-37.988 84.687-84.849 84.687-37.489 0-69.111-22.931-80.696-58.517l22.563-7.318C34.398 128.918 57.587 147 85 147c33.69 0 61-27.31 61-61s-27.31-61-61-61h-.158V.493z"/>
    </defs>
    <g fill="none" fill-rule="evenodd">
        <g>
            <g>
                <g>
                    <g transform="translate(-874 -847) translate(300 760) translate(585 100)">
                        <use fill="#000" filter="url(#hh3o8sxwra)" xlink:href="#cjyj853zbb"/>
                        <use fill="#1CB97C" xlink:href="#cjyj853zbb"/>
                    </g>
                    <path fill="#D8D8D8" d="M84.736.496v15.506l-.894.007c-14.844.241-28.566 5.103-39.788 13.21l-8.906-12.411C50.226 5.718 66.098.496 84.736.496z" transform="translate(-874 -847) translate(300 760) translate(585 100)"/>
                    <path fill="#6E6E6E" d="M35.116 16.477L46.553 32.35C29.868 44.326 19 63.894 19 86c0 6.924 1.066 13.599 3.043 19.87L4.45 111.631C-7.077 75.869 4.94 38.58 35.116 16.477z" transform="translate(-874 -847) translate(300 760) translate(585 100)"/>
                </g>
            </g>
        </g>
    </g>
</svg>
