<svg xmlns="http://www.w3.org/2000/svg" width="40" height="41" viewBox="0 0 40 41">
    <g fill="none" fill-rule="evenodd">
        <g stroke="#000" stroke-width="2.5">
            <g>
                <g>
                    <path d="M31.667 6.348c1.035 0 1.973.42 2.651 1.098.679.679 1.099 1.616 1.099 2.652h0v20c0 1.035-.42 1.973-1.099 2.651-.678.68-1.616 1.099-2.651 1.099h0H8.333c-1.035 0-1.973-.42-2.651-1.099-.679-.678-1.099-1.616-1.099-2.651h0v-20c0-1.036.42-1.973 1.099-2.652.678-.678 1.616-1.098 2.651-1.098h0z" transform="translate(-340 -439) translate(300 400) translate(40 40)"/>
                    <path stroke-linejoin="round" d="M34.742 23.333H24.567c0-2.761-2.238-5-5-5-2.761 0-5 2.239-5 5H4.825" transform="translate(-340 -439) translate(300 400) translate(40 40) rotate(180 19.784 20.833)"/>
                </g>
            </g>
        </g>
    </g>
</svg>
