<svg xmlns="http://www.w3.org/2000/svg" xmlns:xlink="http://www.w3.org/1999/xlink" width="665" height="245" viewBox="0 0 665 245">
    <defs>
        <linearGradient id="l8u90xcnqa" x1="50%" x2="50%" y1="-20.692%" y2="95.025%">
            <stop offset="0%" stop-color="#1CB97C" stop-opacity=".35"/>
            <stop offset="100%" stop-color="#1CB97C" stop-opacity="0"/>
        </linearGradient>
        <linearGradient id="hcoe6nl24b" x1="96.239%" x2="0%" y1="100%" y2="100%">
            <stop offset="0%" stop-color="#1CB97C" stop-opacity="0"/>
            <stop offset="10.218%" stop-color="#1CB97C"/>
            <stop offset="91.197%" stop-color="#1CB97C"/>
            <stop offset="100%" stop-color="#1CB97C" stop-opacity="0"/>
        </linearGradient>
        <filter id="yppqrja7jc" width="120.8%" height="128.1%" x="-10.4%" y="-9.6%" filterUnits="objectBoundingBox">
            <feOffset dy="4" in="SourceAlpha" result="shadowOffsetOuter1"/>
            <feGaussianBlur in="shadowOffsetOuter1" result="shadowBlurOuter1" stdDeviation="3.5"/>
            <feComposite in="shadowBlurOuter1" in2="SourceAlpha" operator="out" result="shadowBlurOuter1"/>
            <feColorMatrix in="shadowBlurOuter1" values="0 0 0 0 0 0 0 0 0 0 0 0 0 0 0 0 0 0 0.05 0"/>
        </filter>
        <filter id="b19bt7fxpe">
            <feColorMatrix in="SourceGraphic" values="0 0 0 0 1.000000 0 0 0 0 0.243137 0 0 0 0 0.337255 0 0 0 1.000000 0"/>
        </filter>
        <path id="3kipz73iwd" d="M100 0c11.046 0 20 8.954 20 20v43c0 11.046-8.954 20-20 20H64.2L60 89l-4.2-6H20C8.954 83 0 74.046 0 63V20C0 8.954 8.954 0 20 0h80z"/>
    </defs>
    <g fill="none" fill-rule="evenodd">
        <g>
            <g>
                <g transform="translate(-918 -365) translate(880 239) translate(39.784 129)">
                    <text fill="#1CB97C" font-family="NotoSans-Bold, Noto Sans" font-size="16" font-weight="bold" letter-spacing="-.8">
                        <tspan x="501.28" y="237">2020.12</tspan>
                    </text>
                    <text fill="#6E6E6E" font-family="NotoSans, Noto Sans" font-size="16" letter-spacing="-.8">
                        <tspan x="107.434" y="237">2020.09</tspan>
                    </text>
                    <text fill="#6E6E6E" font-family="NotoSans, Noto Sans" font-size="16" letter-spacing="-.8">
                        <tspan x="238.434" y="237">2020.10</tspan>
                    </text>
                    <text fill="#6E6E6E" font-family="NotoSans, Noto Sans" font-size="16" letter-spacing="-.8">
                        <tspan x="370.434" y="237">2020.11</tspan>
                    </text>
                    <g stroke="#D8D8D8" opacity=".75">
                        <path stroke-width=".5" d="M.749 80.5L661.251 80.5M.749 100.5L661.251 100.5M.749 120.5L661.251 120.5M.749 140.5L661.251 140.5M.749 160.5L661.251 160.5M.749 180.5L661.251 180.5" transform="translate(.216)"/>
                        <path stroke-width="1.2" d="M0.749 200.5L661.251 200.5" transform="translate(.216)"/>
                        <path stroke-width=".7" d="M132.749 200.5L132.5.5M264.749 200.5L264.5.5M395.749 200.5L395.5.5M527.749 200.5L527.5.5" transform="translate(.216)"/>
                        <path stroke-width=".5" d="M.749 60.5L661.251 60.5M.749 40.5L661.251 40.5M.749 20.5L661.251 20.5M.749.5L661.251.5" transform="translate(.216)"/>
                    </g>
                    <g>
                        <path fill="url(#l8u90xcnqa)" d="M.923 141.873l4.714 4.384c.703.653 1.772.715 2.546.147l5.643-4.143c.343-.252.758-.388 1.184-.388h3.632c.461 0 .91.16 1.266.452l3.508 2.872c.464.38 1.073.53 1.66.413l4.29-.86c.255-.051.518-.052.774-.003l8.823 1.711c.492.096.93.372 1.227.774l6.147 8.31c.657.887 1.909 1.075 2.797.418.222-.165.407-.373.545-.612l1.111-1.935c.357-.621 1.019-1.004 1.735-1.004h5.164c.397 0 .785-.118 1.114-.34l4.118-2.762c.565-.378 1.283-.444 1.907-.175l8.83 3.812c.25.108.52.163.792.163h2.339c.3 0 .598-.067.869-.198l4.161-2.008c.619-.299 1.347-.259 1.93.105l1.733 1.084c.91.568 2.106.318 2.711-.568l1.112-1.626c.488-.714 1.379-1.033 2.209-.792l3.511 1.019c.643.186 1.336.04 1.848-.392l3.144-2.653c.36-.305.818-.471 1.29-.471h4.41c.166 0 .33-.021.492-.062l6.936-1.76c.295-.074.602-.08.9-.019l11.943 2.49c.397.083.81.043 1.184-.115l5.83-2.455c.022-.01.043-.018.065-.026l10.657-4.06c.272-.103.562-.146.852-.125l6.32.442c.7.05 1.375-.272 1.778-.848l4.088-5.837c.195-.279.458-.503.763-.651l8.043-3.913c.685-.334 1.5-.249 2.102.219l1.669 1.297c.667.519 1.589.562 2.302.108l2.457-1.566c.588-.375 1.33-.416 1.956-.109l6.03 2.958c.697.342 1.53.25 2.134-.237l5.878-4.732c.356-.287.798-.443 1.254-.443h6.572c.48 0 .943.173 1.306.486l5.355 4.617c.611.527 1.479.635 2.2.274l4.958-2.479c.383-.19.816-.254 1.237-.181l4.747.825c.626.109 1.267-.087 1.726-.527l2.988-2.863c.105-.1.221-.19.345-.265l10.576-6.43c.065-.04.133-.075.202-.107l16.229-7.481c.766-.353 1.67-.188 2.262.413l3.475 3.53c.724.737 1.89.8 2.69.147l4.085-3.338c.855-.699 2.115-.572 2.814.283.024.03.048.061.07.092l4.93 6.803c.214.295.504.526.84.668l2.533 1.072c.28.119.53.3.73.53l3.772 4.346c.724.834 1.988.923 2.822.199.183-.16.336-.35.45-.564l1.762-3.28c.148-.276.359-.513.614-.692l4.537-3.18c.228-.16.42-.367.565-.605l5.636-9.349c.57-.946 1.8-1.25 2.746-.68.035.021.07.044.103.067l1.516 1.046c.674.465 1.563.473 2.245.019l8.007-5.334c.518-.346 1.168-.43 1.757-.228l.773.265c.506.173 1.06.137 1.54-.101l3.727-1.856c.68-.338 1.494-.262 2.1.197l2.782 2.111c.864.656 2.094.503 2.77-.345l56.4-70.565c.544-.682 1.468-.931 2.282-.617l3.45 1.333c.881.34 1.88.018 2.396-.772L406.086 8.46c.156-.239.362-.442.603-.595l10.624-6.733c.933-.591 2.169-.314 2.76.619.02.031.039.063.057.096l8.442 15.127c.09.16.157.334.2.513l6.346 26.794c.255 1.074 1.332 1.74 2.407 1.485.19-.045.373-.118.542-.216l2.262-1.31c.783-.454 1.772-.326 2.414.312l1.224 1.219c.663.66 1.695.772 2.484.27l3.268-2.08c.49-.31.82-.82.905-1.395l2.099-14.242c.16-1.093 1.177-1.848 2.27-1.687.352.052.684.196.961.42l2.453 1.97c.472.38.747.953.747 1.559v8.938c0 1.104.895 2 2 2 .206 0 .411-.032.608-.095l1.458-.465c1.052-.335 2.177.246 2.513 1.298.027.086.049.175.064.264l1.821 10.437c.163.936 1.054 1.562 1.99 1.399.573-.1 1.057-.483 1.286-1.018l1.438-3.363c.434-1.016 1.61-1.487 2.625-1.053.042.018.083.037.124.058l.212.109c.941.48 2.094.107 2.575-.834.063-.123.112-.252.147-.386l1.672-6.38c.043-.165.065-.335.065-.506v-3.92c0-.667.333-1.29.887-1.661l5.513-3.69c.43-.289.732-.732.842-1.238l3.218-14.823c.084-.387.28-.74.565-1.014l1.617-1.562c.739-.714 1.916-.693 2.63.045.18.187.318.408.408.651l6.266 17.064c.104.281.269.536.484.744l4.584 4.458c.792.77 2.058.752 2.828-.04l.073-.078.34-.39c.492-.563 1.347-.62 1.91-.128.212.185.361.432.427.705l2.296 9.63c.256 1.075 1.335 1.739 2.409 1.482.345-.082.662-.255.918-.5l3.074-2.94c.798-.763 2.064-.735 2.828.064.045.047.087.096.127.147l2.554 3.252c.38.483.96.765 1.573.765h2.562c1.014 0 1.867.757 1.986 1.764l2.475 20.827c.062.516.322.989.725 1.317l2.8 2.273c.798.648 1.957.585 2.681-.145l4.276-4.317c.162-.164.295-.354.392-.563l3.374-7.237c.466-1.002 1.656-1.435 2.657-.968.497.231.877.657 1.051 1.176l4.871 14.506c.273.814 1.037 1.363 1.896 1.363h2.359c.702 0 1.352-.368 1.714-.97l2.557-4.253c.483-.804 1.46-1.164 2.35-.865l6.618 2.222c.593.198 1.244.11 1.76-.242l4.227-2.869c.913-.62 2.157-.382 2.778.532.118.174.208.366.266.568l3.363 11.639c.278.962 1.226 1.57 2.217 1.423l3.686-.551c1.093-.164 2.11.59 2.274 1.682.006.04.01.08.014.12l.602 6.814c.058.657.436 1.243 1.01 1.567l1.61.907c.564.317 1.246.342 1.832.067l2.582-1.212c1-.47 2.19-.04 2.66.96.018.038.035.076.05.115l6.911 17.493c.362.916 1.4 1.366 2.316 1.004.365-.144.673-.405.875-.742l1.046-1.744c.478-.796 1.44-1.158 2.325-.875l.08.025c.89.285 1.859-.085 2.333-.89l4.981-8.472c.56-.952 1.786-1.27 2.738-.71.039.023.077.047.114.073l4.918 3.36c.912.623 2.157.389 2.78-.523.067-.098.125-.202.174-.31l1.967-4.39c.452-1.009 1.635-1.46 2.643-1.008.238.107.453.259.632.448l1.333 1.402c.76.801 2.026.834 2.827.073.155-.147.286-.319.387-.507L660 76.5l1.467 99.278H.965l-.042-33.906z" transform="translate(0 24.72)"/>
                        <path stroke="url(#hcoe6nl24b)" stroke-width="1.5" d="M0 141.873l5.651 4.546c.706.569 1.707.59 2.437.054l5.738-4.212c.343-.252.758-.388 1.184-.388h3.632c.461 0 .91.16 1.266.452l3.508 2.872c.464.38 1.073.53 1.66.413l4.29-.86c.255-.051.518-.052.774-.003l8.823 1.711c.492.096.93.372 1.227.774l6.147 8.31c.657.887 1.909 1.075 2.797.418.222-.165.407-.373.545-.612l1.111-1.935c.357-.621 1.019-1.004 1.735-1.004h5.164c.397 0 .785-.118 1.114-.34l4.118-2.762c.565-.378 1.283-.444 1.907-.175l8.83 3.812c.25.108.52.163.792.163h2.339c.3 0 .598-.067.869-.198l4.161-2.008c.619-.299 1.347-.259 1.93.105l1.733 1.084c.91.568 2.106.318 2.711-.568l1.112-1.626c.488-.714 1.379-1.033 2.209-.792l3.511 1.019c.643.186 1.336.04 1.848-.392l3.144-2.653c.36-.305.818-.471 1.29-.471h4.41c.166 0 .33-.021.492-.062l6.936-1.76c.295-.074.602-.08.9-.019l11.943 2.49c.397.083.81.043 1.184-.115l5.83-2.455c.022-.01.043-.018.065-.026l10.657-4.06c.272-.103.562-.146.852-.125l6.32.442c.7.05 1.375-.272 1.778-.848l4.088-5.837c.195-.279.458-.503.763-.651l8.043-3.913c.685-.334 1.5-.249 2.102.219l1.669 1.297c.667.519 1.589.562 2.302.108l2.457-1.566c.588-.375 1.33-.416 1.956-.109l6.03 2.958c.697.342 1.53.25 2.134-.237l5.878-4.732c.356-.287.798-.443 1.254-.443h6.572c.48 0 .943.173 1.306.486l5.355 4.617c.611.527 1.479.635 2.2.274l4.958-2.479c.383-.19.816-.254 1.237-.181l4.747.825c.626.109 1.267-.087 1.726-.527l2.988-2.863c.105-.1.221-.19.345-.265l10.576-6.43c.065-.04.133-.075.202-.107l16.229-7.481c.766-.353 1.67-.188 2.262.413l3.475 3.53c.724.737 1.89.8 2.69.147l4.085-3.338c.855-.699 2.115-.572 2.814.283.024.03.048.061.07.092l4.93 6.803c.214.295.504.526.84.668l2.533 1.072c.28.119.53.3.73.53l3.772 4.346c.724.834 1.988.923 2.822.199.183-.16.336-.35.45-.564l1.762-3.28c.148-.276.359-.513.614-.692l4.537-3.18c.228-.16.42-.367.565-.605l5.636-9.349c.57-.946 1.8-1.25 2.746-.68.035.021.07.044.103.067l1.516 1.046c.674.465 1.563.473 2.245.019l8.007-5.334c.518-.346 1.168-.43 1.757-.228l.773.265c.506.173 1.06.137 1.54-.101l3.727-1.856c.68-.338 1.494-.262 2.1.197l2.782 2.111c.864.656 2.094.503 2.77-.345l56.4-70.565c.544-.682 1.468-.931 2.282-.617l3.45 1.333c.881.34 1.88.018 2.396-.772L406.086 8.46c.156-.239.362-.442.603-.595l10.624-6.733c.933-.591 2.169-.314 2.76.619.02.031.039.063.057.096l8.442 15.127c.09.16.157.334.2.513l6.346 26.794c.255 1.074 1.332 1.74 2.407 1.485.19-.045.373-.118.542-.216l2.262-1.31c.783-.454 1.772-.326 2.414.312l1.224 1.219c.663.66 1.695.772 2.484.27l3.268-2.08c.49-.31.82-.82.905-1.395l2.099-14.242c.16-1.093 1.177-1.848 2.27-1.687.352.052.684.196.961.42l2.453 1.97c.472.38.747.953.747 1.559v8.938c0 1.104.895 2 2 2 .206 0 .411-.032.608-.095l1.458-.465c1.052-.335 2.177.246 2.513 1.298.027.086.049.175.064.264l1.821 10.437c.163.936 1.054 1.562 1.99 1.399.573-.1 1.057-.483 1.286-1.018l1.438-3.363c.434-1.016 1.61-1.487 2.625-1.053.042.018.083.037.124.058l.212.109c.941.48 2.094.107 2.575-.834.063-.123.112-.252.147-.386l1.672-6.38c.043-.165.065-.335.065-.506v-3.92c0-.667.333-1.29.887-1.661l5.513-3.69c.43-.289.732-.732.842-1.238l3.218-14.823c.084-.387.28-.74.565-1.014l1.617-1.562c.739-.714 1.916-.693 2.63.045.18.187.318.408.408.651l6.266 17.064c.104.281.269.536.484.744l4.584 4.458c.792.77 2.058.752 2.828-.04l.073-.078.34-.39c.492-.563 1.347-.62 1.91-.128.212.185.361.432.427.705l2.296 9.63c.256 1.075 1.335 1.739 2.409 1.482.345-.082.662-.255.918-.5l3.074-2.94c.798-.763 2.064-.735 2.828.064.045.047.087.096.127.147l2.554 3.252c.38.483.96.765 1.573.765h2.562c1.014 0 1.867.757 1.986 1.764l2.475 20.827c.062.516.322.989.725 1.317l2.8 2.273c.798.648 1.957.585 2.681-.145l4.276-4.317c.162-.164.295-.354.392-.563l3.374-7.237c.466-1.002 1.656-1.435 2.657-.968.497.231.877.657 1.051 1.176l4.871 14.506c.273.814 1.037 1.363 1.896 1.363h2.359c.702 0 1.352-.368 1.714-.97l2.557-4.253c.483-.804 1.46-1.164 2.35-.865l6.618 2.222c.593.198 1.244.11 1.76-.242l4.227-2.869c.913-.62 2.157-.382 2.778.532.118.174.208.366.266.568l3.363 11.639c.278.962 1.226 1.57 2.217 1.423l3.686-.551c1.093-.164 2.11.59 2.274 1.682.006.04.01.08.014.12l.602 6.814c.058.657.436 1.243 1.01 1.567l1.61.907c.564.317 1.246.342 1.832.067l2.582-1.212c1-.47 2.19-.04 2.66.96.018.038.035.076.05.115l6.911 17.493c.362.916 1.4 1.366 2.316 1.004.365-.144.673-.405.875-.742l1.046-1.744c.478-.796 1.44-1.158 2.325-.875l.08.025c.89.285 1.859-.085 2.333-.89l4.981-8.472c.56-.952 1.786-1.27 2.738-.71.039.023.077.047.114.073l4.918 3.36c.912.623 2.157.389 2.78-.523.067-.098.125-.202.174-.31l1.967-4.39c.452-1.009 1.635-1.46 2.643-1.008.238.107.453.259.632.448l1.333 1.402c.76.801 2.026.834 2.827.073.155-.147.286-.319.387-.507L660 76.5h0" transform="translate(0 24.72)"/>
                    </g>
                    <g transform="translate(523.216)">
                        <use fill="#000" filter="url(#yppqrja7jc)" xlink:href="#3kipz73iwd"/>
                        <path fill="#FFF" stroke="#E9E9E9" stroke-linejoin="square" stroke-width=".5" d="M100 .25c5.454 0 10.391 2.21 13.965 5.785 3.574 3.574 5.785 8.511 5.785 13.965h0v43c0 5.454-2.21 10.391-5.785 13.965-3.574 3.574-8.511 5.785-13.965 5.785h0-35.93L60 88.564l-4.07-5.814H20c-5.454 0-10.391-2.21-13.965-5.785C2.46 73.391.25 68.454.25 63h0V20c0-5.454 2.21-10.391 5.785-13.965C9.609 2.46 14.546.25 20 .25h0z"/>
                        <text fill="#6E6E6E" font-family="NotoSansCJKkr-Medium, Noto Sans CJK KR" font-size="14" font-weight="400" letter-spacing="-.583">
                            <tspan x="22.327" y="27">재산권 수익률</tspan>
                        </text>
                        <text fill="#FF3E56" font-family="NotoSans-Medium, Noto Sans" font-size="16" font-weight="400" letter-spacing="-.8">
                            <tspan x="43.836" y="47">61,000</tspan>
                        </text>
                        <text fill="#FF3E56" font-family="NotoSans-Light, Noto Sans" font-size="14" font-weight="300" letter-spacing="-.7">
                            <tspan x="42.322" y="65">(4.9%)</tspan>
                        </text>
                        <g filter="url(#b19bt7fxpe)">
                            <g>
                                <path fill="#000" d="M12.753 8.36l4.796 5.481c.363.416.321 1.048-.094 1.412-.183.16-.417.247-.659.247H7.204c-.553 0-1-.448-1-1 0-.242.088-.476.247-.659l4.796-5.48c.364-.417.996-.459 1.412-.095.033.03.064.06.094.094z" transform="translate(19 29)"/>
                            </g>
                        </g>
                    </g>
                    <circle cx="583.216" cy="96" r="5" fill="#1CB97C" stroke="#FFF"/>
                </g>
            </g>
        </g>
    </g>
</svg>
