<svg xmlns="http://www.w3.org/2000/svg" width="24" height="24" viewBox="0 0 24 24">
    <defs>
        <filter id="no817pdbia">
            <feColorMatrix in="SourceGraphic" values="0 0 0 0 0.847000 0 0 0 0 0.847000 0 0 0 0 0.847000 0 0 0 1.000000 0"/>
        </filter>
    </defs>
    <g fill="none" fill-rule="evenodd">
        <g>
            <g filter="url(#no817pdbia)" transform="translate(-1516 -164) translate(0 100)">
                <g>
                    <path stroke="#000" stroke-width="1.5" d="M12.6 4.124c.303-.103.645-.09.955.064.245.121.444.32.565.565h0l1.803 3.642c.255.515.746.872 1.314.955h0l4.02.589c.342.05.631.234.822.49.191.257.284.587.234.928-.04.271-.167.521-.363.713h0l-2.906 2.84c-.411.401-.599.979-.502 1.545h0l.682 4.005c.058.34-.028.672-.213.933s-.47.452-.81.51c-.27.045-.547.001-.79-.126h0l-3.599-1.886c-.508-.267-1.116-.267-1.624 0h0l-3.6 1.886c-.305.16-.647.182-.952.086-.305-.095-.574-.307-.735-.612-.127-.243-.17-.52-.125-.79h0l.682-4.006c.097-.566-.091-1.144-.502-1.545h0L4.05 12.07c-.247-.241-.373-.56-.376-.88-.004-.32.114-.64.356-.888.191-.196.441-.323.712-.363h0l4.02-.59c.569-.082 1.06-.44 1.315-.954h0l1.803-3.642c.153-.309.417-.527.72-.63z" transform="translate(1515 63)"/>
                </g>
            </g>
        </g>
    </g>
</svg>
